<?xml version="1.0" standalone="no"?>
<!DOCTYPE svg PUBLIC "-//W3C//DTD SVG 20010904//EN"
 "http://www.w3.org/TR/2001/REC-SVG-20010904/DTD/svg10.dtd">
<svg version="1.0" xmlns="http://www.w3.org/2000/svg"
 width="583.000000pt" height="86.000000pt" viewBox="0 0 583.000000 86.000000"
 preserveAspectRatio="xMidYMid meet">

<g transform="translate(0.000000,86.000000) scale(0.100000,-0.100000)"
fill="#000000" stroke="none">
<path d="M4011 839 c-123 -24 -251 -121 -304 -230 -100 -203 -9 -450 200 -550
59 -28 81 -33 168 -37 118 -4 190 14 277 71 130 87 204 248 178 394 -42 243
-274 400 -519 352z m180 -163 c56 -20 103 -61 135 -118 37 -70 40 -168 5 -241
-43 -88 -135 -147 -231 -147 -111 0 -215 77 -245 184 -39 134 22 267 147 321
41 18 141 18 189 1z"/>
<path d="M5375 836 c-142 -35 -215 -117 -215 -241 0 -139 41 -170 348 -261
128 -38 162 -82 106 -135 -53 -50 -229 -35 -358 31 -33 17 -60 29 -61 28 -2
-2 -19 -35 -38 -74 l-36 -72 67 -30 c105 -48 185 -65 302 -66 137 -1 206 20
271 84 39 37 49 55 59 102 19 94 -2 164 -66 216 -35 29 -119 60 -302 112 -83
24 -112 47 -112 88 0 86 167 103 316 33 l64 -30 36 65 c43 77 41 80 -53 117
-120 47 -227 58 -328 33z"/>
<path d="M307 713 c-31 -70 -112 -255 -181 -411 l-124 -283 94 3 95 3 42 95
43 95 161 3 161 2 42 -100 43 -100 93 0 93 0 -27 63 c-14 34 -95 217 -178 407
l-151 345 -75 3 -75 3 -56 -128z m189 -209 c30 -64 54 -121 54 -126 0 -4 -52
-8 -116 -8 -106 0 -116 1 -110 18 17 44 111 240 115 237 2 -2 27 -57 57 -121z"/>
<path d="M1397 828 c6 -7 79 -100 162 -206 104 -131 150 -197 143 -205 -4 -7
-75 -96 -155 -199 -81 -103 -147 -190 -147 -193 0 -3 42 -5 93 -5 l94 0 107
140 c60 77 111 138 115 136 4 -3 54 -66 112 -140 l104 -136 93 0 c50 0 92 2
92 5 0 3 -66 89 -147 193 -80 103 -150 192 -155 199 -6 8 40 74 143 205 83
106 156 199 162 206 7 9 -11 12 -85 12 l-95 0 -114 -145 c-86 -110 -116 -142
-124 -132 -5 7 -56 73 -113 145 l-104 132 -95 0 c-75 0 -93 -3 -86 -12z"/>
<path d="M2987 817 l-28 -22 3 -334 3 -334 95 78 c52 43 98 81 102 84 4 4 -24
5 -62 3 l-70 -4 0 276 c0 152 -3 276 -7 276 -5 0 -20 -10 -36 -23z"/>
<path d="M2786 659 l-98 -79 66 0 66 0 0 -280 c0 -154 3 -280 8 -280 4 0 19
12 35 25 l27 24 -2 335 -3 334 -99 -79z"/>
</g>
</svg>
